<svg width="14" height="14" viewBox="0 0 14 14" fill="none" xmlns="http://www.w3.org/2000/svg">
<g clip-path="url(#clip0_22_19)">
<path d="M11.4317 1.58544C11.1915 1.38861 10.9388 1.20775 10.675 1.04395L10.2148 1.78751C10.4465 1.93073 10.6685 2.08912 10.8792 2.26164L11.4317 1.58544Z" fill="#282828"/>
<path d="M12.7027 2.94294C12.5218 2.68991 12.3246 2.44896 12.1122 2.22168L11.4736 2.82003C11.6597 3.0188 11.8324 3.22965 11.9906 3.45119L12.7027 2.94294Z" fill="#282828"/>
<path d="M13.1933 3.73617L12.42 4.14557C13.9979 7.13681 12.8522 10.8408 9.86092 12.4187C6.86968 13.9966 3.16566 12.8509 1.58777 9.85965C0.00988184 6.86841 1.15557 3.16439 4.14681 1.58647C5.02706 1.12213 6.00723 0.879349 7.00243 0.879103C7.86147 0.876725 8.71124 1.05666 9.49556 1.40703L9.85248 0.608358C6.32248 -0.96565 2.18487 0.619976 0.610803 4.14997C-0.963205 7.67997 0.622394 11.8176 4.15242 13.3916C7.68241 14.9657 11.8201 13.3801 13.3941 9.85006C13.7937 8.95393 14.0004 7.98379 14.0007 7.00261C14.0004 5.86444 13.7233 4.7434 13.1933 3.73617Z" fill="#282828"/>
<path d="M6.56288 4.53277C6.23104 4.15647 5.75362 3.94079 5.2519 3.94043H3.06494V10.0639H5.2519C6.21816 10.0633 7.00093 9.27939 7.00027 8.31314C6.99992 7.81143 6.78423 7.33401 6.40793 7.00217C7.13261 6.36303 7.20199 5.25744 6.56288 4.53277ZM5.2519 9.18913H3.93973V7.43956H5.2519C5.73503 7.43956 6.12669 7.83122 6.12669 8.31434C6.12669 8.79747 5.73503 9.18913 5.2519 9.18913ZM5.2519 6.56478H3.93973V4.81521H5.2519C5.73503 4.81521 6.12669 5.20687 6.12669 5.69C6.12669 6.17312 5.73503 6.56478 5.2519 6.56478Z" fill="#282828"/>
<path d="M11.8121 7.87739C11.868 6.73156 10.9892 5.75514 9.84384 5.69043C8.69847 5.75514 7.81969 6.73156 7.87557 7.87739C7.81969 9.02322 8.69847 9.99964 9.84384 10.0643C10.3434 10.0603 10.8202 9.85535 11.1669 9.49574L10.5459 8.88339C10.3622 9.07527 10.1094 9.18554 9.84384 9.18956C9.34433 9.15862 8.92477 8.80258 8.8129 8.31478H11.8121V7.87739ZM8.8129 7.44C8.92477 6.95219 9.34433 6.59616 9.84384 6.56521C10.3434 6.59616 10.7629 6.95219 10.8748 7.44H8.8129Z" fill="#282828"/>
<path d="M10.9379 3.94043H8.75098V4.81521H10.9379V3.94043Z" fill="#282828"/>
</g>
<defs>
<clipPath id="clip0_22_19">
<rect width="14" height="14" fill="white"/>
</clipPath>
</defs>
</svg>
