<svg width="14" height="14" viewBox="0 0 14 14" fill="none" xmlns="http://www.w3.org/2000/svg">
<path d="M7 0C3.14562 0 0 3.1459 0 7C0 10.8544 3.1459 14 7 14C10.8544 14 14 10.8541 14 7C14 3.14562 10.8541 0 7 0ZM11.748 3.0491C12.6219 4.09746 13.1554 5.43867 13.1783 6.90156C12.0829 6.64535 10.8664 6.62813 9.62746 6.85398C9.30508 6.91277 8.9827 6.98742 8.66223 7.07711C8.55559 6.78699 8.44238 6.49934 8.32207 6.21441C8.1993 5.92375 8.06969 5.63801 7.93406 5.35637C9.41035 4.79254 11.01 3.95309 11.748 3.0491ZM7 0.820312C8.60836 0.820312 10.0748 1.43801 11.1754 2.44836C10.7461 3.03379 9.52273 3.88609 7.56 4.62109C6.87477 3.34523 6.05309 2.17273 5.10371 1.11836C5.70145 0.925039 6.33883 0.820312 7 0.820312ZM4.2916 1.44648C5.25984 2.48363 6.09273 3.64191 6.77879 4.89316C4.73676 5.55406 2.6693 5.82367 0.969336 5.64949C1.38332 3.79969 2.62883 2.26051 4.2916 1.44648ZM0.820312 7C0.820312 6.81844 0.828789 6.63879 0.844102 6.46133C1.21926 6.50098 1.61055 6.52094 2.01496 6.52094C3.60992 6.52094 5.40176 6.21414 7.16133 5.63145C7.42984 6.18105 7.67129 6.74652 7.8843 7.32594C7.19824 7.57258 6.53051 7.88621 5.90352 8.25945C4.36625 9.17465 3.2416 10.3521 2.77512 11.5054C1.57281 10.3772 0.820312 8.77488 0.820312 7ZM7 13.1797C5.67957 13.1797 4.45457 12.7632 3.44914 12.0548C3.76086 11.0015 4.81523 9.86207 6.32324 8.96437C6.85453 8.64773 7.47578 8.34941 8.15199 8.10688C8.63133 9.61352 8.925 11.2038 9.01824 12.8409C8.38551 13.0602 7.70656 13.1797 7 13.1797ZM9.81832 12.4988C9.70457 10.9041 9.40762 9.35156 8.93102 7.86023C10.2599 7.49492 11.7359 7.37242 13.1357 7.73555C12.8879 9.81394 11.605 11.5793 9.81832 12.4988Z" fill="#FF4C60"/>
</svg>
